<mxfile host="app.diagrams.net" modified="2022-02-07T17:21:55.892Z" agent="5.0 (Windows NT 10.0; Win64; x64) AppleWebKit/537.36 (KHTML, like Gecko) Chrome/97.0.4692.99 Safari/537.36" etag="fBmp-t8mXx6lQ6A7H6zL" version="16.5.3" type="github">
  <diagram id="C5RBs43oDa-KdzZeNtuy" name="Page-1">
    <mxGraphModel dx="992" dy="613" grid="1" gridSize="10" guides="1" tooltips="1" connect="1" arrows="1" fold="1" page="1" pageScale="1" pageWidth="827" pageHeight="1169" background="#F1FAEE" math="0" shadow="0">
      <root>
        <mxCell id="WIyWlLk6GJQsqaUBKTNV-0" />
        <mxCell id="WIyWlLk6GJQsqaUBKTNV-1" parent="WIyWlLk6GJQsqaUBKTNV-0" />
        <mxCell id="O1w3WCs1X5jNn9kUkT5b-7" value="" style="edgeStyle=orthogonalEdgeStyle;rounded=0;orthogonalLoop=1;jettySize=auto;html=1;fontSize=11;noEdgeStyle=1;orthogonal=1;labelBackgroundColor=#F1FAEE;strokeColor=#457B9D;fontColor=#1D3557;" edge="1" parent="WIyWlLk6GJQsqaUBKTNV-1" source="O1w3WCs1X5jNn9kUkT5b-5" target="O1w3WCs1X5jNn9kUkT5b-6">
          <mxGeometry relative="1" as="geometry">
            <Array as="points">
              <mxPoint x="282" y="125" />
              <mxPoint x="358" y="125" />
            </Array>
          </mxGeometry>
        </mxCell>
        <mxCell id="O1w3WCs1X5jNn9kUkT5b-5" value="Webiste Home" style="rounded=1;whiteSpace=wrap;html=1;fontSize=11;fillColor=#A8DADC;strokeColor=#457B9D;fontColor=#1D3557;" vertex="1" parent="WIyWlLk6GJQsqaUBKTNV-1">
          <mxGeometry x="150" y="105" width="120" height="40" as="geometry" />
        </mxCell>
        <mxCell id="O1w3WCs1X5jNn9kUkT5b-41" value="" style="edgeStyle=orthogonalEdgeStyle;rounded=0;orthogonalLoop=1;jettySize=auto;html=1;fontSize=11;labelBackgroundColor=#F1FAEE;strokeColor=#457B9D;fontColor=#1D3557;" edge="1" parent="WIyWlLk6GJQsqaUBKTNV-1" source="O1w3WCs1X5jNn9kUkT5b-6" target="O1w3WCs1X5jNn9kUkT5b-40">
          <mxGeometry relative="1" as="geometry" />
        </mxCell>
        <mxCell id="O1w3WCs1X5jNn9kUkT5b-43" value="" style="edgeStyle=orthogonalEdgeStyle;rounded=0;orthogonalLoop=1;jettySize=auto;html=1;fontSize=11;entryX=0;entryY=0.5;entryDx=0;entryDy=0;labelBackgroundColor=#F1FAEE;strokeColor=#457B9D;fontColor=#1D3557;" edge="1" parent="WIyWlLk6GJQsqaUBKTNV-1" source="O1w3WCs1X5jNn9kUkT5b-6" target="O1w3WCs1X5jNn9kUkT5b-42">
          <mxGeometry relative="1" as="geometry" />
        </mxCell>
        <mxCell id="O1w3WCs1X5jNn9kUkT5b-45" value="" style="edgeStyle=orthogonalEdgeStyle;rounded=0;orthogonalLoop=1;jettySize=auto;html=1;fontSize=11;entryX=0;entryY=0.5;entryDx=0;entryDy=0;labelBackgroundColor=#F1FAEE;strokeColor=#457B9D;fontColor=#1D3557;" edge="1" parent="WIyWlLk6GJQsqaUBKTNV-1" source="O1w3WCs1X5jNn9kUkT5b-6" target="O1w3WCs1X5jNn9kUkT5b-44">
          <mxGeometry relative="1" as="geometry" />
        </mxCell>
        <mxCell id="O1w3WCs1X5jNn9kUkT5b-47" value="" style="edgeStyle=orthogonalEdgeStyle;rounded=0;orthogonalLoop=1;jettySize=auto;html=1;fontSize=11;entryX=0;entryY=0.5;entryDx=0;entryDy=0;labelBackgroundColor=#F1FAEE;strokeColor=#457B9D;fontColor=#1D3557;" edge="1" parent="WIyWlLk6GJQsqaUBKTNV-1" source="O1w3WCs1X5jNn9kUkT5b-6" target="O1w3WCs1X5jNn9kUkT5b-46">
          <mxGeometry relative="1" as="geometry" />
        </mxCell>
        <mxCell id="O1w3WCs1X5jNn9kUkT5b-6" value="Student Registration" style="whiteSpace=wrap;html=1;rounded=1;fontSize=11;fillColor=#A8DADC;strokeColor=#457B9D;fontColor=#1D3557;" vertex="1" parent="WIyWlLk6GJQsqaUBKTNV-1">
          <mxGeometry x="370" y="102" width="120" height="46" as="geometry" />
        </mxCell>
        <mxCell id="O1w3WCs1X5jNn9kUkT5b-58" value="" style="edgeStyle=orthogonalEdgeStyle;rounded=0;orthogonalLoop=1;jettySize=auto;html=1;fontSize=11;labelBackgroundColor=#F1FAEE;strokeColor=#457B9D;fontColor=#1D3557;" edge="1" parent="WIyWlLk6GJQsqaUBKTNV-1" source="O1w3WCs1X5jNn9kUkT5b-24" target="O1w3WCs1X5jNn9kUkT5b-5">
          <mxGeometry relative="1" as="geometry" />
        </mxCell>
        <mxCell id="O1w3WCs1X5jNn9kUkT5b-24" value="Start" style="ellipse;whiteSpace=wrap;html=1;fontSize=11;fillColor=#A8DADC;strokeColor=#457B9D;fontColor=#1D3557;" vertex="1" parent="WIyWlLk6GJQsqaUBKTNV-1">
          <mxGeometry x="90" y="30" width="50" height="40" as="geometry" />
        </mxCell>
        <mxCell id="O1w3WCs1X5jNn9kUkT5b-59" value="" style="edgeStyle=orthogonalEdgeStyle;rounded=0;orthogonalLoop=1;jettySize=auto;html=1;fontSize=11;labelBackgroundColor=#F1FAEE;strokeColor=#457B9D;fontColor=#1D3557;" edge="1" parent="WIyWlLk6GJQsqaUBKTNV-1" source="O1w3WCs1X5jNn9kUkT5b-29" target="O1w3WCs1X5jNn9kUkT5b-54">
          <mxGeometry relative="1" as="geometry" />
        </mxCell>
        <mxCell id="O1w3WCs1X5jNn9kUkT5b-29" value="End" style="ellipse;whiteSpace=wrap;html=1;rounded=1;fontSize=11;fillColor=#A8DADC;strokeColor=#457B9D;fontColor=#1D3557;" vertex="1" parent="WIyWlLk6GJQsqaUBKTNV-1">
          <mxGeometry x="1090" y="186.75400435686112" width="40" height="32.5" as="geometry" />
        </mxCell>
        <mxCell id="O1w3WCs1X5jNn9kUkT5b-33" value="&lt;h1&gt;Overview&lt;/h1&gt;&lt;p&gt;Lffffff&lt;/p&gt;" style="text;html=1;strokeColor=none;fillColor=none;spacing=5;spacingTop=-20;whiteSpace=wrap;overflow=hidden;rounded=0;fontSize=11;fontColor=#1D3557;" vertex="1" parent="WIyWlLk6GJQsqaUBKTNV-1">
          <mxGeometry y="320" width="190" height="120" as="geometry" />
        </mxCell>
        <mxCell id="O1w3WCs1X5jNn9kUkT5b-34" value="" style="shape=cylinder3;whiteSpace=wrap;html=1;boundedLbl=1;backgroundOutline=1;size=15;fontSize=11;fillColor=#A8DADC;strokeColor=#457B9D;fontColor=#1D3557;" vertex="1" parent="WIyWlLk6GJQsqaUBKTNV-1">
          <mxGeometry y="500" width="60" height="80" as="geometry" />
        </mxCell>
        <mxCell id="O1w3WCs1X5jNn9kUkT5b-55" value="" style="edgeStyle=orthogonalEdgeStyle;rounded=0;orthogonalLoop=1;jettySize=auto;html=1;fontSize=11;exitX=0.5;exitY=1;exitDx=0;exitDy=0;labelBackgroundColor=#F1FAEE;strokeColor=#457B9D;fontColor=#1D3557;" edge="1" parent="WIyWlLk6GJQsqaUBKTNV-1" source="O1w3WCs1X5jNn9kUkT5b-40" target="O1w3WCs1X5jNn9kUkT5b-54">
          <mxGeometry relative="1" as="geometry">
            <Array as="points">
              <mxPoint x="860" y="160" />
              <mxPoint x="990" y="160" />
            </Array>
          </mxGeometry>
        </mxCell>
        <mxCell id="O1w3WCs1X5jNn9kUkT5b-56" value="" style="edgeStyle=orthogonalEdgeStyle;rounded=0;orthogonalLoop=1;jettySize=auto;html=1;fontSize=11;labelBackgroundColor=#F1FAEE;strokeColor=#457B9D;fontColor=#1D3557;" edge="1" parent="WIyWlLk6GJQsqaUBKTNV-1" source="O1w3WCs1X5jNn9kUkT5b-40" target="O1w3WCs1X5jNn9kUkT5b-50">
          <mxGeometry relative="1" as="geometry" />
        </mxCell>
        <mxCell id="O1w3WCs1X5jNn9kUkT5b-57" value="" style="edgeStyle=orthogonalEdgeStyle;rounded=0;orthogonalLoop=1;jettySize=auto;html=1;fontSize=11;entryX=0.5;entryY=0;entryDx=0;entryDy=0;exitX=0.5;exitY=1;exitDx=0;exitDy=0;labelBackgroundColor=#F1FAEE;strokeColor=#457B9D;fontColor=#1D3557;" edge="1" parent="WIyWlLk6GJQsqaUBKTNV-1" source="O1w3WCs1X5jNn9kUkT5b-40" target="O1w3WCs1X5jNn9kUkT5b-48">
          <mxGeometry relative="1" as="geometry">
            <Array as="points">
              <mxPoint x="860" y="160" />
              <mxPoint x="730" y="160" />
            </Array>
          </mxGeometry>
        </mxCell>
        <mxCell id="O1w3WCs1X5jNn9kUkT5b-40" value="Custumers" style="whiteSpace=wrap;html=1;rounded=1;fontSize=11;fillColor=#A8DADC;strokeColor=#457B9D;fontColor=#1D3557;" vertex="1" parent="WIyWlLk6GJQsqaUBKTNV-1">
          <mxGeometry x="800" y="102" width="120" height="46" as="geometry" />
        </mxCell>
        <mxCell id="O1w3WCs1X5jNn9kUkT5b-42" value="Parents or guardians" style="whiteSpace=wrap;html=1;rounded=1;fontSize=11;fillColor=#A8DADC;strokeColor=#457B9D;fontColor=#1D3557;" vertex="1" parent="WIyWlLk6GJQsqaUBKTNV-1">
          <mxGeometry x="450" y="180" width="120" height="46" as="geometry" />
        </mxCell>
        <mxCell id="O1w3WCs1X5jNn9kUkT5b-44" value="Credit Card" style="whiteSpace=wrap;html=1;rounded=1;fontSize=11;fillColor=#A8DADC;strokeColor=#457B9D;fontColor=#1D3557;" vertex="1" parent="WIyWlLk6GJQsqaUBKTNV-1">
          <mxGeometry x="450" y="235.37" width="120" height="39.63" as="geometry" />
        </mxCell>
        <mxCell id="O1w3WCs1X5jNn9kUkT5b-46" value="Banking reference" style="whiteSpace=wrap;html=1;rounded=1;fontSize=11;fillColor=#A8DADC;strokeColor=#457B9D;fontColor=#1D3557;" vertex="1" parent="WIyWlLk6GJQsqaUBKTNV-1">
          <mxGeometry x="450" y="285" width="120" height="46" as="geometry" />
        </mxCell>
        <mxCell id="O1w3WCs1X5jNn9kUkT5b-48" value="Universities" style="whiteSpace=wrap;html=1;rounded=1;fontSize=11;fillColor=#ffe6cc;strokeColor=#d79b00;" vertex="1" parent="WIyWlLk6GJQsqaUBKTNV-1">
          <mxGeometry x="670" y="180" width="120" height="46" as="geometry" />
        </mxCell>
        <mxCell id="O1w3WCs1X5jNn9kUkT5b-50" value="Bank" style="whiteSpace=wrap;html=1;rounded=1;fontSize=11;fillColor=#ffe6cc;strokeColor=#d79b00;" vertex="1" parent="WIyWlLk6GJQsqaUBKTNV-1">
          <mxGeometry x="800" y="180" width="120" height="46" as="geometry" />
        </mxCell>
        <mxCell id="O1w3WCs1X5jNn9kUkT5b-54" value="Hearth plan and others services to ofter services" style="whiteSpace=wrap;html=1;rounded=1;fontSize=11;fillColor=#f8cecc;strokeColor=#b85450;" vertex="1" parent="WIyWlLk6GJQsqaUBKTNV-1">
          <mxGeometry x="930" y="180" width="120" height="46" as="geometry" />
        </mxCell>
        <mxCell id="O1w3WCs1X5jNn9kUkT5b-60" value="MY Sql Database" style="shape=cylinder3;whiteSpace=wrap;html=1;boundedLbl=1;backgroundOutline=1;size=15;rounded=0;sketch=0;fontColor=#1D3557;strokeColor=#457B9D;fillColor=#A8DADC;" vertex="1" parent="WIyWlLk6GJQsqaUBKTNV-1">
          <mxGeometry x="480" y="350" width="60" height="80" as="geometry" />
        </mxCell>
        <mxCell id="O1w3WCs1X5jNn9kUkT5b-63" value="" style="edgeStyle=elbowEdgeStyle;elbow=horizontal;endArrow=classic;html=1;rounded=1;sketch=0;fontColor=#1D3557;strokeColor=#457B9D;fillColor=#A8DADC;curved=0;entryX=0;entryY=0.5;entryDx=0;entryDy=0;entryPerimeter=0;" edge="1" parent="WIyWlLk6GJQsqaUBKTNV-1" target="O1w3WCs1X5jNn9kUkT5b-60">
          <mxGeometry width="50" height="50" relative="1" as="geometry">
            <mxPoint x="430" y="230" as="sourcePoint" />
            <mxPoint x="620" y="180" as="targetPoint" />
            <Array as="points">
              <mxPoint x="400" y="270" />
            </Array>
          </mxGeometry>
        </mxCell>
        <mxCell id="O1w3WCs1X5jNn9kUkT5b-64" value="" style="edgeStyle=elbowEdgeStyle;elbow=vertical;endArrow=classic;html=1;rounded=1;sketch=0;fontColor=#1D3557;strokeColor=#457B9D;fillColor=#A8DADC;curved=0;exitX=1;exitY=0;exitDx=0;exitDy=52.5;exitPerimeter=0;entryX=0.5;entryY=1;entryDx=0;entryDy=0;" edge="1" parent="WIyWlLk6GJQsqaUBKTNV-1" source="O1w3WCs1X5jNn9kUkT5b-60" target="O1w3WCs1X5jNn9kUkT5b-50">
          <mxGeometry width="50" height="50" relative="1" as="geometry">
            <mxPoint x="590" y="410" as="sourcePoint" />
            <mxPoint x="640" y="360" as="targetPoint" />
            <Array as="points">
              <mxPoint x="700" y="390" />
            </Array>
          </mxGeometry>
        </mxCell>
        <mxCell id="O1w3WCs1X5jNn9kUkT5b-65" value="" style="edgeStyle=elbowEdgeStyle;elbow=vertical;endArrow=classic;html=1;rounded=1;sketch=0;fontColor=#1D3557;strokeColor=#457B9D;fillColor=#A8DADC;curved=0;exitX=1;exitY=0.5;exitDx=0;exitDy=0;exitPerimeter=0;entryX=0.5;entryY=1;entryDx=0;entryDy=0;" edge="1" parent="WIyWlLk6GJQsqaUBKTNV-1" source="O1w3WCs1X5jNn9kUkT5b-60" target="O1w3WCs1X5jNn9kUkT5b-48">
          <mxGeometry width="50" height="50" relative="1" as="geometry">
            <mxPoint x="550" y="412.5" as="sourcePoint" />
            <mxPoint x="870" y="236" as="targetPoint" />
            <Array as="points">
              <mxPoint x="640" y="390" />
            </Array>
          </mxGeometry>
        </mxCell>
      </root>
    </mxGraphModel>
  </diagram>
</mxfile>
